<svg xmlns="http://www.w3.org/2000/svg" width="445" height="445" viewBox="0 0 445 445">
<g>
<path d="M 191.50 201.61 L 190.50 287.50 L 114.38 287.76 C51.03,287.97 38.06,287.78 37.12,286.65 C36.29,285.65 36.06,262.89 36.24,201.89 L 36.50 118.50 L 90.77 118.24 L 145.05 117.98 L 144.77 135.74 L 144.50 153.50 L 83.50 154.50 L 83.50 183.50 L 128.50 184.50 L 128.79 199.00 C128.94,206.98 128.82,214.51 128.52,215.75 L 127.96 218.00 L 82.95 218.00 L 83.50 252.50 L 149.99 253.03 L 150.24 185.76 L 150.50 118.50 L 195.41 118.50 L 214.67 156.00 C225.27,176.62 235.75,197.55 237.95,202.50 L 241.96 211.50 L 241.98 166.33 C241.99,141.49 242.27,120.45 242.61,119.58 C243.13,118.22 245.84,118.00 262.50,118.00 L 281.78 118.00 L 282.25 121.25 C282.65,124.01 282.56,255.28 282.14,279.75 L 282.00 288.00 L 262.15 288.00 C244.50,288.00 242.14,287.81 240.80,286.25 C238.07,283.09 201.73,221.72 196.56,211.55 Z" fill="rgb(2,2,2)"/>
<path d="M 261.00 337.97 C261.00,338.66 245.49,339.00 213.58,339.00 L 166.15 339.00 L 163.21 336.52 C156.82,331.14 156.77,322.90 163.09,317.57 L 166.15 315.00 L 213.58 315.00 C239.66,315.00 261.00,315.20 261.00,315.45 C261.00,315.70 259.90,317.09 258.55,318.54 C253.94,323.52 254.50,334.44 259.46,336.35 C260.31,336.67 261.00,337.40 261.00,337.97 ZM 282.25 121.25 L 281.78 118.00 L 285.84 118.00 L 286.38 124.25 C286.68,127.69 287.17,157.04 287.48,189.48 C287.78,221.92 288.32,257.06 288.67,267.57 L 289.30 286.69 L 285.40 287.33 C284.82,287.43 283.64,287.52 282.01,287.60 L 282.14 279.75 C282.56,255.28 282.65,124.01 282.25,121.25 Z" fill="rgb(13,76,227)"/>
<path d="M 285.86 118.20 C289.90,118.22 294.30,118.25 299.10,118.28 C358.84,118.72 359.36,118.76 374.39,124.42 C395.43,132.34 408.19,149.03 414.18,176.50 C416.27,186.08 415.95,220.51 413.68,230.50 C409.74,247.82 401.78,262.84 392.52,270.43 C390.03,272.47 388.00,273.85 388.00,273.50 C388.00,273.14 387.22,273.64 386.27,274.59 C383.71,277.15 371.37,282.73 364.50,284.44 C352.44,287.44 340.94,288.00 291.93,288.00 C288.37,288.00 285.07,288.00 282.00,288.00 L 282.01 287.60 C283.64,287.52 284.82,287.43 285.40,287.33 L 289.30 286.69 L 288.67 267.57 C288.32,257.06 287.78,221.92 287.48,189.48 C287.17,157.04 286.68,127.69 286.38,124.25 ZM 327.00 154.00 L 327.00 252.21 L 338.75 251.81 C349.04,251.46 351.13,251.09 355.58,248.78 C365.50,243.62 369.61,234.34 370.96,214.05 C371.90,199.91 370.85,182.33 368.57,174.02 C364.68,159.89 355.09,154.04 335.75,154.01 ZM 242.87 119.17 C242.90,119.13 242.96,119.09 243.03,119.04 C242.97,119.09 242.92,119.13 242.87,119.17 Z" fill="rgb(14,145,246)"/>
<path d="M 166.15 339.00 C165.39,339.00 164.63,339.00 163.86,339.00 L 162.69 339.00 C75.25,339.00 64.17,338.83 62.44,337.44 C60.57,335.94 60.57,335.93 62.68,336.94 C64.72,337.93 160.00,338.59 160.00,337.62 C160.00,337.41 159.32,335.63 158.50,333.65 C156.59,329.07 156.60,324.29 158.54,320.58 C160.45,316.91 159.72,316.21 153.50,315.74 C152.17,315.64 156.90,315.53 165.64,315.43 L 163.09 317.57 C156.77,322.90 156.82,331.14 163.21,336.52 Z" fill="rgb(185,169,95)"/>
<path d="M 261.00 337.97 C261.00,337.40 260.31,336.67 259.46,336.35 C254.50,334.44 253.94,323.52 258.55,318.54 C259.90,317.09 261.00,315.70 261.00,315.45 C261.00,315.35 257.81,315.26 252.38,315.19 C254.50,315.19 256.64,315.18 258.80,315.18 C355.67,315.02 369.46,315.18 372.03,316.52 C379.86,320.56 379.86,333.44 372.03,337.48 C369.45,338.82 350.97,339.00 216.74,339.00 L 214.02 339.00 C245.63,339.00 261.00,338.66 261.00,337.97 Z" fill="rgb(231,5,51)"/>
<path d="M 165.75 315.34 L 165.64 315.43 C156.90,315.53 152.17,315.64 153.50,315.74 C159.72,316.21 160.45,316.91 158.54,320.58 C156.60,324.29 156.59,329.07 158.50,333.65 C159.32,335.63 160.00,337.41 160.00,337.62 C160.00,338.59 64.72,337.93 62.68,336.94 C61.76,336.50 61.24,336.25 61.10,336.24 C60.52,335.50 59.90,334.64 59.34,333.74 C55.98,328.42 56.53,322.70 60.77,318.92 L 63.66 316.33 L 124.00 315.67 C134.77,315.55 149.30,315.43 165.75,315.34 ZM 276.71 315.00 C357.34,315.00 369.47,315.19 372.03,316.52 C369.46,315.18 355.67,315.02 258.80,315.18 C256.64,315.18 254.50,315.19 252.38,315.19 L 252.38 315.19 C248.10,315.13 242.45,315.09 235.88,315.05 C250.06,315.02 263.95,315.00 276.71,315.00 ZM 61.37 336.57 C61.60,336.77 61.96,337.06 62.44,337.44 C63.03,337.91 64.69,338.24 70.02,338.47 C65.71,338.42 63.33,338.37 63.20,338.32 C62.81,338.17 62.14,337.50 61.37,336.57 Z" fill="rgb(239,194,7)"/>
<path d="M 0.00 222.50 L 0.00 0.00 L 222.50 0.00 L 445.00 0.00 L 445.00 222.50 L 445.00 445.00 L 222.50 445.00 L 0.00 445.00 L 0.00 222.50 ZM 372.03 337.48 C379.86,333.44 379.86,320.56 372.03,316.52 C369.47,315.19 357.34,315.00 276.71,315.00 C225.90,315.00 157.18,315.30 124.00,315.67 L 63.66 316.33 L 60.77 318.92 C56.53,322.70 55.98,328.42 59.34,333.74 C60.75,335.97 62.48,338.03 63.20,338.32 C63.91,338.61 133.03,338.88 216.80,338.92 C351.08,338.99 369.45,338.82 372.03,337.48 ZM 191.00 244.55 L 191.50 201.61 L 196.56 211.55 C201.73,221.72 238.07,283.09 240.80,286.25 C242.20,287.87 245.91,288.00 291.93,288.00 C340.94,288.00 352.44,287.44 364.50,284.44 C371.37,282.73 383.71,277.15 386.27,274.59 C387.22,273.64 388.00,273.14 388.00,273.50 C388.00,273.85 390.03,272.47 392.52,270.43 C401.78,262.84 409.74,247.82 413.68,230.50 C415.95,220.51 416.27,186.08 414.18,176.50 C408.19,149.03 395.43,132.34 374.39,124.42 C359.36,118.76 358.84,118.72 299.10,118.28 C254.13,117.95 243.54,118.12 242.86,119.19 C242.40,119.91 242.01,140.98 242.00,166.00 L 241.96 211.50 L 237.95 202.50 C235.75,197.55 225.27,176.62 214.67,156.00 L 195.41 118.50 L 172.95 118.50 L 150.50 118.50 L 150.24 185.76 L 149.99 253.03 L 116.74 252.76 L 83.50 252.50 L 83.23 235.25 L 82.95 218.00 L 105.46 218.00 L 127.96 218.00 L 128.52 215.75 C128.82,214.51 128.94,206.98 128.79,199.00 L 128.50 184.50 L 106.00 184.00 L 83.50 183.50 L 83.50 169.00 L 83.50 154.50 L 114.00 154.00 L 144.50 153.50 L 144.77 135.74 L 145.05 117.98 L 90.77 118.24 L 36.50 118.50 L 36.24 201.89 C36.06,262.89 36.29,285.65 37.12,286.65 C38.06,287.78 51.03,287.97 114.38,287.76 L 190.50 287.50 L 191.00 244.55 ZM 327.00 203.11 L 327.00 154.00 L 335.75 154.01 C355.09,154.04 364.68,159.89 368.57,174.02 C370.85,182.33 371.90,199.91 370.96,214.05 C369.61,234.34 365.50,243.62 355.58,248.78 C351.13,251.09 349.04,251.46 338.75,251.81 L 327.00 252.21 L 327.00 203.11 Z" fill="rgb(254,254,254)"/>
</g>
</svg>