<?xml version="1.0" standalone="no"?>
<!DOCTYPE svg PUBLIC "-//W3C//DTD SVG 20010904//EN"
 "http://www.w3.org/TR/2001/REC-SVG-20010904/DTD/svg10.dtd">
<svg version="1.0" xmlns="http://www.w3.org/2000/svg"
 width="430.000000pt" height="60.000000pt" viewBox="0 0 430.000000 60.000000"
 preserveAspectRatio="xMidYMid meet">

<g transform="translate(0.000000,60.000000) scale(0.100000,-0.100000)"
fill="#000000" stroke="none">
<path d="M1088 436 l-3 -159 -85 156 -84 157 -83 0 -83 0 0 -290 0 -290 75 0
74 0 3 148 3 147 90 -148 90 -147 75 2 75 3 3 287 2 286 -75 4 -75 3 -2 -159z"/>
<path d="M2 303 l3 -288 198 -3 197 -2 0 60 0 60 -120 0 -121 0 3 63 3 62 83
3 82 3 0 54 0 55 -84 0 -83 0 0 50 0 50 113 0 114 0 0 60 0 60 -195 0 -195 0
2 -287z"/>
<path d="M430 300 l0 -291 83 3 82 3 3 238 c1 131 -1 259 -6 285 l-7 47 -78 3
-77 3 0 -291z"/>


<path d="M1278 323 c-3 -177 0 -230 17 -262 29 -58 124 -66 193 -17 l36 25 11
-22 c9 -19 20 -22 83 -25 l72 -3 0 216 0 215 -79 0 -78 0 -7 -147 c-4 -82 -11
-152 -17 -157 -5 -6 -19 -6 -36 0 l-28 9 -3 148 -3 147 -79 0 -80 0 -2 -127z"/>
<path d="M1878 440 c-51 -15 -94 -49 -118 -92 -21 -35 -25 -56 -25 -118 1
-114 41 -177 134 -208 43 -15 128 -15 172 -1 37 13 99 55 99 68 0 5 -17 20
-38 35 l-39 26 -44 -20 c-58 -26 -75 -25 -104 5 -50 49 -38 55 106 55 l132 0
-6 58 c-11 103 -44 155 -119 187 -40 16 -106 18 -150 5z m112 -119 c22 -42 14
-51 -45 -51 -60 0 -67 9 -39 48 20 28 69 30 84 3z"/>
<path d="M2170 436 c0 -8 32 -107 71 -221 l72 -206 84 3 85 3 69 200 c38 109
69 207 69 217 0 16 -9 18 -73 18 l-74 0 -28 -107 c-15 -60 -31 -112 -35 -116
-4 -4 -15 20 -24 55 -10 35 -24 87 -33 116 l-14 52 -85 0 c-66 0 -84 -3 -84
-14z"/>
<path d="M2778 436 c-84 -31 -124 -83 -135 -176 -17 -146 71 -250 213 -250
130 0 208 80 208 215 0 94 -28 155 -90 191 -54 32 -142 41 -196 20z m112 -116
c16 -16 20 -33 20 -84 0 -93 -11 -116 -54 -116 -46 0 -56 20 -56 109 0 58 4
75 20 91 11 11 27 20 35 20 8 0 24 -9 35 -20z"/>
</g>
<g transform="translate(0.000000,60.000000) scale(0.100000,-0.100000)"
fill="#01bef2" stroke="none">

<path d="M3223 303 l2 -288 125 0 c190 0 261 30 312 132 20 41 23 63 23 153 0
92 -3 112 -26 161 -48 101 -115 129 -310 129 l-128 0 2 -287z m278 140 c36
-35 45 -182 16 -257 -12 -32 -58 -56 -107 -56 l-30 0 0 171 0 172 51 -5 c32
-3 58 -12 70 -25z"/>

<path d="M3754 563 c-3 -16 -10 -43 -14 -60 l-8 -33 48 0 c45 0 51 3 84 44 55
66 50 76 -34 76 -68 0 -70 -1 -76 -27z"/>
<path d="M3753 442 l-23 -3 0 -215 0 -214 75 0 75 0 0 210 c0 159 -3 212 -12
215 -18 7 -89 11 -115 7z"/>
<path d="M3993 428 c-39 -13 -40 -18 -12 -68 19 -34 24 -37 46 -29 38 14 100
11 117 -7 9 -8 16 -26 16 -39 0 -22 -3 -23 -69 -22 -81 1 -127 -21 -154 -73
-31 -60 -6 -143 49 -168 38 -18 115 -15 149 6 28 17 30 17 47 0 13 -13 33 -18
68 -18 l50 0 -7 173 c-6 190 -14 216 -69 242 -37 17 -180 19 -231 3z m167
-268 c0 -45 -27 -80 -60 -80 -25 0 -60 34 -60 58 0 38 31 60 88 61 31 1 32 0
32 -39z"/>
</g>
</svg>
